<svg xmlns="http://www.w3.org/2000/svg" width="512" height="512" viewBox="0 0 512 512"><defs><linearGradient id="green" x1="140" y1="100" x2="372" y2="420" gradientUnits="userSpaceOnUse"><stop offset="0" stop-color="#B8FF5C"/><stop offset="0.5" stop-color="#4ADE80"/><stop offset="1" stop-color="#2DD4BF"/></linearGradient>
<linearGradient id="sprout" x1="0" y1="0" x2="1" y2="1"><stop stop-color="#ffffff"/><stop offset="1" stop-color="#c9ff6b"/></linearGradient>
<filter id="glow" x="-60%" y="-60%" width="220%" height="220%"><feGaussianBlur stdDeviation="20"/></filter>
<filter id="soft" x="-60%" y="-60%" width="220%" height="220%"><feGaussianBlur stdDeviation="9"/></filter><radialGradient id="bg" cx="0.3" cy="0.22" r="0.95"><stop stop-color="#0E4A2B"/><stop offset="1" stop-color="#020A06"/></radialGradient></defs><rect width="512" height="512" rx="116" fill="url(#bg)"/><rect x="3" y="3" width="506" height="506" rx="113" fill="none" stroke="#fff" stroke-opacity="0.14" stroke-width="6"/><g transform="translate(256 256) scale(0.9) translate(-256 -256)"><g transform="translate(256 256) scale(1.1) translate(-256 -233)"><path d="M256 124L372 180V370L256 426L140 370V180Z" fill="url(#green)" filter="url(#glow)" opacity="0.5"/><path d="M140 344L256 400V426L140 370Z" fill="#0e6e4c" fill-opacity="0.5"/><path d="M372 344L256 400V426L372 370Z" fill="#0a5e52" fill-opacity="0.5"/><path d="M256 288L372 344L256 400L140 344Z" fill="url(#green)" stroke-width="5" stroke-linejoin="round" fill-opacity="0.32" stroke="#ffffff" stroke-opacity="0.75"/><path d="M140 262L256 318V344L140 288Z" fill="#0e6e4c" fill-opacity="0.5"/><path d="M372 262L256 318V344L372 288Z" fill="#0a5e52" fill-opacity="0.5"/><path d="M256 206L372 262L256 318L140 262Z" fill="url(#green)" stroke-width="5" stroke-linejoin="round" fill-opacity="0.32" stroke="#ffffff" stroke-opacity="0.75"/><g opacity="0.85"><path d="M140 288L256 344L372 288" stroke="#B8FF5C" stroke-width="12" fill="none" stroke-linejoin="round" filter="url(#soft)"/><path d="M146 288L256 341L366 288" stroke="#F4FFD6" stroke-width="3" fill="none" stroke-linejoin="round"/></g><path d="M140 180L256 236V262L140 206Z" fill="#0e6e4c" fill-opacity="0.5"/><path d="M372 180L256 236V262L372 206Z" fill="#0a5e52" fill-opacity="0.5"/><path d="M256 124L372 180L256 236L140 180Z" fill="url(#green)" stroke-width="5" stroke-linejoin="round" fill-opacity="0.32" stroke="#ffffff" stroke-opacity="0.75"/><g opacity="0.85"><path d="M140 206L256 262L372 206" stroke="#B8FF5C" stroke-width="12" fill="none" stroke-linejoin="round" filter="url(#soft)"/><path d="M146 206L256 259L366 206" stroke="#F4FFD6" stroke-width="3" fill="none" stroke-linejoin="round"/></g><g transform="translate(256 182) scale(1.32) translate(-256 -184)"><g filter="url(#glow)" opacity="0.9" fill="#B8FF5C"><path d="M253 142C220 142 192 121 186 85C222 82 249 106 253 142Z"/><path d="M259 129C266 92 295 69 335 71C331 109 301 130 259 129Z"/></g><path d="M256 186V128" stroke-width="13" stroke-linecap="round" stroke="#ffffff"/><path d="M253 142C220 142 192 121 186 85C222 82 249 106 253 142Z" fill="url(#sprout)"/><path d="M259 129C266 92 295 69 335 71C331 109 301 130 259 129Z" fill="url(#sprout)"/></g></g></g></svg>
